<svg version="1.0" xmlns="http://www.w3.org/2000/svg"
 width="24.000000pt" height="24.000000pt" viewBox="0 0 24.000000 24.000000"
 preserveAspectRatio="xMidYMid meet">
<metadata>
Created by potrace 1.15, written by Peter Selinger 2001-2017
</metadata>
<g transform="translate(0.000000,24.000000) scale(0.100000,-0.100000)"
fill="#000000" stroke="none">
<path d="M93 223 c-49 -9 -86 -72 -75 -128 5 -28 48 -75 68 -75 20 0 13 52 -9
71 -15 11 -18 22 -13 46 6 28 10 30 56 32 47 1 49 0 55 -31 6 -26 3 -35 -14
-49 -23 -19 -29 -69 -7 -69 20 0 66 50 68 74 2 35 -2 60 -13 82 -17 33 -72 55
-116 47z"/>
</g>
</svg>
